<svg width="18" height="19" viewBox="0 0 18 19" fill="none" xmlns="http://www.w3.org/2000/svg">
<path d="M16 0.955566C16.5304 0.955566 17.0391 1.16628 17.4142 1.54135C17.7893 1.91643 18 2.42513 18 2.95557V16.9556C18 17.486 17.7893 17.9947 17.4142 18.3698C17.0391 18.7449 16.5304 18.9556 16 18.9556H2C1.46957 18.9556 0.960859 18.7449 0.585786 18.3698C0.210714 17.9947 0 17.486 0 16.9556V2.95557C0 2.42513 0.210714 1.91643 0.585786 1.54135C0.960859 1.16628 1.46957 0.955566 2 0.955566H16ZM15.5 16.4556V11.1556C15.5 10.291 15.1565 9.46177 14.5452 8.8504C13.9338 8.23903 13.1046 7.89557 12.24 7.89557C11.39 7.89557 10.4 8.41557 9.92 9.19557V8.08557H7.13V16.4556H9.92V11.5256C9.92 10.7556 10.54 10.1256 11.31 10.1256C11.6813 10.1256 12.0374 10.2731 12.2999 10.5356C12.5625 10.7982 12.71 11.1543 12.71 11.5256V16.4556H15.5ZM3.88 6.51557C4.32556 6.51557 4.75288 6.33857 5.06794 6.02351C5.383 5.70845 5.56 5.28113 5.56 4.83557C5.56 3.90557 4.81 3.14557 3.88 3.14557C3.43178 3.14557 3.00193 3.32362 2.68499 3.64056C2.36805 3.95749 2.19 4.38735 2.19 4.83557C2.19 5.76557 2.95 6.51557 3.88 6.51557ZM5.27 16.4556V8.08557H2.5V16.4556H5.27Z" fill="#DDDDDD"/>
</svg>
